HIERARCHY
ROOT Hips
{
	OFFSET 0.000000 0.000000 0.000000
	CHANNELS 6 Xposition Yposition Zposition Zrotation Yrotation Xrotation 
	JOINT LHipJoint
	{
		OFFSET 0.000000 0.000000 0.000000
		CHANNELS 3 Zrotation Yrotation Xrotation
		JOINT LeftUpLeg
		{
			OFFSET 1.363060 -1.794630 0.839290
			CHANNELS 3 Zrotation Yrotation Xrotation
			JOINT LeftLeg
			{
				OFFSET 2.448110 -6.726130 0.000000
				CHANNELS 3 Zrotation Yrotation Xrotation
				JOINT LeftFoot
				{
					OFFSET 2.562200 -7.039590 0.000000
					CHANNELS 3 Zrotation Yrotation Xrotation
					JOINT LeftToeBase
					{
						OFFSET 0.157640 -0.433110 2.322550
						CHANNELS 3 Zrotation Yrotation Xrotation
						End Site
						{
							OFFSET 0.000000 0.000000 0.000000
						}
					}
				}
			}
		}
	}
	JOINT RHipJoint
	{
		OFFSET 0.000000 0.000000 0.000000
		CHANNELS 3 Zrotation Yrotation Xrotation
		JOINT RightUpLeg
		{
			OFFSET -1.305520 -1.794630 0.839290
			CHANNELS 3 Zrotation Yrotation Xrotation
			JOINT RightLeg
			{
				OFFSET -2.542530 -6.985550 0.000000
				CHANNELS 3 Zrotation Yrotation Xrotation
				JOINT RightFoot
				{
					OFFSET -2.568260 -7.056230 0.000000
					CHANNELS 3 Zrotation Yrotation Xrotation
					JOINT RightToeBase
					{
						OFFSET -0.164730 -0.452590 2.363150
						CHANNELS 3 Zrotation Yrotation Xrotation
						End Site
						{
							OFFSET 0.000000 0.000000 0.000000
						}
					}
				}
			}
		}
	}
	JOINT LowerBack
	{
		OFFSET 0.000000 0.000000 0.000000
		CHANNELS 3 Zrotation Yrotation Xrotation
		JOINT Spine
		{
			OFFSET 0.028270 2.035590 -0.193380
			CHANNELS 3 Zrotation Yrotation Xrotation
			JOINT Spine1
			{
				OFFSET 0.056720 2.048850 -0.042750
				CHANNELS 3 Zrotation Yrotation Xrotation
				JOINT Neck
				{
					OFFSET 0.000000 0.000000 0.000000
					CHANNELS 3 Zrotation Yrotation Xrotation
					JOINT Neck1
					{
						OFFSET -0.054170 1.746240 0.172020
						CHANNELS 3 Zrotation Yrotation Xrotation
						JOINT Head
						{
							OFFSET 0.104070 1.761360 -0.123970
							CHANNELS 3 Zrotation Yrotation Xrotation
							End Site
							{
								OFFSET 0.000000 0.000000 0.000000
							}
						}
					}
				}
				JOINT LeftShoulder
				{
					OFFSET 0.000000 0.000000 0.000000
					CHANNELS 3 Zrotation Yrotation Xrotation
					JOINT LeftArm
					{
						OFFSET 3.362410 1.200890 -0.311210
						CHANNELS 3 Zrotation Yrotation Xrotation
						JOINT LeftForeArm
						{
							OFFSET 4.983000 -0.000000 -0.000000
							CHANNELS 3 Zrotation Yrotation Xrotation
							JOINT LeftHand
							{
								OFFSET 3.483560 -0.000000 -0.000000
								CHANNELS 3 Zrotation Yrotation Xrotation
								JOINT LeftFingerBase
								{
									OFFSET 0.000000 0.000000 0.000000
									CHANNELS 3 Zrotation Yrotation Xrotation
									JOINT LeftHandIndex1
									{
										OFFSET 0.715260 -0.000000 -0.000000
										CHANNELS 3 Zrotation Yrotation Xrotation
										End Site
										{
											OFFSET 0.000000 0.000000 0.000000
										}
									}
								}
								JOINT LThumb
								{
									OFFSET 0.000000 0.000000 0.000000
									CHANNELS 3 Zrotation Yrotation Xrotation
									End Site
									{
										OFFSET 0.000000 0.000000 0.000000
									}
								}
							}
						}
					}
				}
				JOINT RightShoulder
				{
					OFFSET 0.000000 0.000000 0.000000
					CHANNELS 3 Zrotation Yrotation Xrotation
					JOINT RightArm
					{
						OFFSET -3.136600 1.374050 -0.404650
						CHANNELS 3 Zrotation Yrotation Xrotation
						JOINT RightForeArm
						{
							OFFSET -5.241900 -0.000000 -0.000000
							CHANNELS 3 Zrotation Yrotation Xrotation
							JOINT RightHand
							{
								OFFSET -3.444170 -0.000000 -0.000000
								CHANNELS 3 Zrotation Yrotation Xrotation
								JOINT RightFingerBase
								{
									OFFSET 0.000000 0.000000 0.000000
									CHANNELS 3 Zrotation Yrotation Xrotation
									JOINT RightHandIndex1
									{
										OFFSET -0.622530 -0.000000 -0.000000
										CHANNELS 3 Zrotation Yrotation Xrotation
										End Site
										{
											OFFSET 0.000000 0.000000 0.000000
										}
									}
								}
								JOINT RThumb
								{
									OFFSET 0.000000 0.000000 0.000000
									CHANNELS 3 Zrotation Yrotation Xrotation
									End Site
									{
										OFFSET 0.000000 0.000000 0.000000
									}
								}
							}
						}
					}
				}
			}
		}
	}
}
MOTION
Frames: 5
Frame Time: 0.008333
-0.499692 18.487339 4.998297 -0.860159 3.354173 24.083796 1.621336 3.534781 4.137730 -8.230438 -17.114428 -39.856834 1.746642 9.779836 28.211444 -0.745625 5.734022 -6.525197 8.463200 -16.449600 -54.214500 -3.692241 -3.496203 3.718454 16.061915 10.411632 -26.530511 0.095661 -2.523905 9.936777 0.847044 -10.871329 -18.229741 -0.026000 1.041700 -2.863400 3.976434 0.279783 18.258799 -4.259700 2.054739 35.887021 -1.966746 1.017164 -26.816492 -2.641181 -2.240787 -24.693997 8.454357 -3.098390 12.940732 1.922100 -0.982700 6.133400 4.615210 -3.100772 -1.185513 -77.921384 -40.009457 48.056094 29.315930 -38.494603 -9.508173 0.709458 0.096046 12.747190 28.352980 -39.084190 -18.515200 -7.125000 0.000000 0.000000 -3.930800 -13.052000 4.726700 -5.235849 3.649215 0.009339 70.605132 32.092380 42.426168 -33.612454 42.013848 -10.629795 -0.119524 -2.417405 8.803731 -28.686265 -34.345023 16.150700 7.125000 0.000000 0.000000 3.435500 -64.943300 -1.658100 
-0.496258 18.488713 5.000651 -0.898877 3.179748 24.083795 1.605441 3.535879 4.135957 -8.235911 -17.015771 -39.835896 1.745683 9.785992 28.220759 -0.759563 5.805026 -6.560830 8.456700 -16.445100 -54.191500 -3.709547 -3.492601 3.711932 16.028108 10.567699 -26.460272 0.103149 -2.492705 9.856461 0.862499 -10.942200 -18.218092 -0.027100 1.062000 -2.919400 3.983152 0.355747 18.256630 -4.403127 2.179576 35.880345 -1.926192 1.071508 -26.799830 -2.398670 -2.072666 -24.777560 7.486477 -2.796652 12.992234 1.691600 -0.899900 6.133700 4.601419 -3.102404 -1.183701 -78.058425 -40.090576 47.921622 29.226532 -38.418383 -9.461211 0.709630 0.090884 12.829240 28.364886 -39.146116 -18.544400 -7.125000 0.000000 0.000000 -3.939200 -13.113700 4.740000 -5.244130 3.647021 0.010432 70.445136 32.119794 42.542579 -33.755857 42.116819 -10.697555 -0.105057 -2.415638 8.699033 -28.531203 -34.330564 16.055100 7.125000 0.000000 0.000000 3.617200 -64.892500 -1.741600 
-0.495768 18.490283 4.996040 -0.859681 3.229777 24.087535 1.600912 3.536818 4.138297 -8.246686 -17.074658 -39.859225 1.747776 9.790454 28.230843 -0.761941 5.813279 -6.518573 8.444900 -16.436900 -54.149800 -3.714464 -3.492935 3.708065 16.019063 10.510736 -26.451349 0.106628 -2.477479 9.817859 0.867355 -10.968539 -18.224665 -0.025600 1.033100 -2.840000 3.979424 0.324302 18.362063 -4.501084 2.169617 35.838416 -1.863424 1.061642 -26.880546 -2.186836 -1.855106 -24.702135 6.798186 -2.446815 12.855879 1.533800 -0.782000 6.067900 4.595233 -3.095866 -1.184803 -78.255488 -40.149739 47.732114 29.134267 -38.348840 -9.411988 0.707769 0.091697 12.865857 28.430322 -39.004085 -18.542000 -7.125000 0.000000 0.000000 -3.871000 -12.990100 4.651400 -5.238963 3.639170 0.006455 70.388000 32.160082 42.690467 -33.868132 42.206054 -10.751512 -0.098496 -2.409435 8.675303 -28.496963 -34.146174 15.959700 7.125000 0.000000 0.000000 3.553300 -64.700200 -1.695000 
-0.497632 18.491068 4.987406 -0.765098 3.417557 24.090560 1.607365 3.534528 4.142257 -8.279567 -17.223708 -39.907087 1.751572 9.790304 28.236486 -0.755421 5.772043 -6.425152 8.435800 -16.430600 -54.117700 -3.707283 -3.499541 3.710681 16.005977 10.327697 -26.492216 0.107200 -2.475594 9.810659 0.864099 -10.959411 -18.241901 -0.023800 0.996600 -2.739600 3.915615 0.232913 18.497034 -4.521075 2.053199 35.810396 -1.763329 1.015079 -26.979252 -1.964902 -1.598757 -24.587818 6.111243 -2.042048 12.616440 1.380000 -0.639500 5.973600 4.584430 -3.081523 -1.188791 -78.371275 -40.200545 47.476448 29.076130 -38.306957 -9.383903 0.705309 0.093425 12.824633 28.541900 -38.924271 -18.596500 -7.125000 0.000000 0.000000 -3.794300 -12.942800 4.556500 -5.236525 3.633887 -0.000573 70.391621 32.233746 42.839221 -33.961177 42.286613 -10.797388 -0.092160 -2.404968 8.682141 -28.441513 -33.999756 15.867800 7.125000 0.000000 0.000000 3.536700 -64.540000 -1.673900 
-0.498809 18.491853 4.982991 -0.730462 3.566329 24.093715 1.614510 3.531538 4.143932 -8.264691 -17.329336 -39.945728 1.755876 9.791415 28.245021 -0.744923 5.715065 -6.362578 8.412400 -16.414300 -54.034700 -3.700154 -3.505224 3.713566 16.028665 10.199334 -26.511009 0.108928 -2.467635 9.787372 0.859139 -10.941274 -18.256049 -0.022600 0.970700 -2.668200 3.866190 0.164411 18.544510 -4.518025 1.956799 35.820044 -1.685658 0.977227 -26.993568 -1.696173 -1.398708 -24.672688 5.415559 -1.726776 12.595089 1.211900 -0.529100 5.965000 4.565485 -3.066429 -1.188163 -78.279242 -40.293732 47.292088 29.104617 -38.324010 -9.398881 0.704627 0.097061 12.624658 28.447874 -38.918616 -18.525900 -7.125000 0.000000 0.000000 -3.840200 -12.909900 4.610200 -5.241879 3.642311 -0.000883 70.385347 32.312254 42.953267 -34.059757 42.369846 -10.850567 -0.086512 -2.402385 8.663869 -28.428422 -34.001419 15.864200 7.125000 0.000000 0.000000 3.550200 -64.542000 -1.680400 
